#!OML:ASF F:\VICON\USERDATA\INSTALL\rory3\rory3.ASF
:FULLY-SPECIFIED
:DEGREES
4499
root -1.88121 17.6986 0.209901 3.55113 2.33258 0.368376
lowerback -2.84739 -0.807763 -2.53942
upperback 0.142028 -1.03543 2.46013
thorax 1.83418 -0.553705 3.91505
lowerneck -26.0109 -1.59049 -10.4935
upperneck 23.8163 0.579128 4.87213
head 12.1278 -0.0501204 3.6969
rclavicle 3.27995e-015 -1.19271e-014
rhumerus 29.8469 -25.5142 -32.2814
rradius 27.6592
rwrist 35.5304
rhand -28.0859 -6.44801
rfingers 7.12502
rthumb -1.46892 -36.4227
lclavicle 3.27995e-015 -1.19271e-014
lhumerus 31.0346 21.5361 40.9077
lradius 26.9869
lwrist -20.1626
lhand -20.5645 20.6109
lfingers 7.12502
lthumb 5.79486 50.5117
rfemur -11.5155 2.82611 11.9118
rtibia 30.9696
rfoot -22.4829 -9.01638
rtoes 7.96579
lfemur -9.66062 -2.57509 -15.0197
ltibia 26.9073
lfoot -15.8814 4.03911
ltoes -20.3293
4500
root -1.88201 17.6988 0.201874 3.57399 2.5062 0.383388
lowerback -2.76675 -0.836743 -2.53657
upperback 0.205288 -1.07541 2.43269
thorax 1.85689 -0.57491 3.88368
lowerneck -26.2131 -1.62549 -10.3888
upperneck 23.7108 0.522152 4.83588
head 12.1301 -0.06648 3.65497
rclavicle -4.47266e-015 0
rhumerus 29.0029 -25.2699 -32.4949
rradius 27.5911
rwrist 35.3856
rhand -28.1678 -6.51445
rfingers 7.12502
rthumb -1.548 -36.4886
lclavicle -4.47266e-015 0
lhumerus 30.3794 21.5058 41.7326
lradius 26.8496
lwrist -20.5172
lhand -20.3411 20.2806
lfingers 7.12502
lthumb 6.0105 50.1753
rfemur -11.5172 2.72421 11.9042
rtibia 30.9421
rfoot -22.472 -8.98625
rtoes 8.57553
lfemur -9.75528 -2.64674 -15.0259
ltibia 26.9277
lfoot -15.8295 3.9483
ltoes -20.4691
4501
root -1.88361 17.7027 0.196403 3.67496 2.65817 0.357347
lowerback -2.78367 -0.841559 -2.47431
upperback 0.227594 -1.0829 2.38505
thorax 1.88781 -0.57861 3.79829
lowerneck -26.2968 -1.65128 -10.2113
upperneck 23.5566 0.448635 4.74945
head 12.0926 -0.0895695 3.57592
rclavicle 1.32192e-014 -2.94201e-014
rhumerus 28.0692 -25.2039 -32.8372
rradius 27.6101
rwrist 35.3994
rhand -28.2465 -6.64712
rfingers 7.12502
rthumb -1.624 -36.6207
lclavicle 1.32192e-014 -2.94201e-014
lhumerus 29.7552 21.4936 42.54
lradius 26.6507
lwrist -21.0146
lhand -20.1243 19.793
lfingers 7.12502
lthumb 6.21985 49.6816
rfemur -11.5983 2.58613 11.9433
rtibia 30.9264
rfoot -22.4466 -9.05843
rtoes 8.18678
lfemur -9.92062 -2.63005 -14.977
ltibia 26.9352
lfoot -15.7884 3.8315
ltoes -20.5777
4502
root -1.88604 17.7054 0.19172 3.74293 2.76534 0.259797
lowerback -2.76935 -0.833328 -2.35601
upperback 0.254945 -1.07603 2.37237
thorax 1.90479 -0.574542 3.71851
lowerneck -26.4287 -1.68145 -10.149
upperneck 23.5116 0.385908 4.78395
head 12.1049 -0.104887 3.56833
rclavicle -3.10601e-015 -7.15625e-015
rhumerus 27.0356 -24.951 -32.9073
rradius 27.6213
rwrist 35.1665
rhand -28.2457 -6.61112
rfingers 7.12502
rthumb -1.62318 -36.5847
lclavicle -3.10601e-015 -7.15625e-015
lhumerus 28.9892 21.3114 43.1944
lradius 26.5419
lwrist -21.0344
lhand -20.274 20.086
lfingers 7.12502
lthumb 6.07531 49.9789
rfemur -11.6501 2.56081 12.0691
rtibia 30.9061
rfoot -22.4754 -9.13181
rtoes 7.94759
lfemur -10.065 -2.59475 -14.8369
ltibia 26.9457
lfoot -15.764 3.69591
ltoes -20.4722
4503
root -1.88718 17.7055 0.187276 3.82413 2.87651 0.233624
lowerback -2.76015 -0.82634 -2.31755
upperback 0.300395 -1.06827 2.36312
thorax 1.94483 -0.571505 3.68737
lowerneck -26.6702 -1.71076 -10.1098
upperneck 23.4856 0.355324 4.78918
head 12.1428 -0.112126 3.56055
rclavicle 1.53561e-014 4.77083e-015
rhumerus 25.8907 -24.5734 -32.7257
rradius 27.6861
rwrist 34.7266
rhand -28.1501 -6.56707
rfingers 7.12502
rthumb -1.53084 -36.5413
lclavicle 1.53561e-014 4.77083e-015
lhumerus 28.1543 21.276 43.9122
lradius 26.5212
lwrist -21.0736
lhand -20.3014 20.3062
lfingers 7.12502
lthumb 6.04884 50.1999
rfemur -11.7307 2.50823 12.1066
rtibia 30.8931
rfoot -22.4686 -9.25812
rtoes 7.42334
lfemur -10.216 -2.69763 -14.7842
ltibia 26.9496
lfoot -15.7165 3.65568
ltoes -20.3092
4504
root -1.88871 17.7061 0.182174 3.93129 2.98932 0.219385
lowerback -2.7389 -0.816182 -2.29916
upperback 0.315399 -1.05558 2.35628
thorax 1.94681 -0.565158 3.67064
lowerneck -26.8749 -1.73571 -9.97924
upperneck 23.4689 0.325048 4.66997
head 12.1782 -0.128674 3.48937
rclavicle -1.20762e-014 3.33958e-014
rhumerus 24.8282 -24.4586 -32.7531
rradius 27.7194
rwrist 34.6915
rhand -28.0537 -6.63035
rfingers 7.12502
rthumb -1.43776 -36.6052
lclavicle -1.20762e-014 3.33958e-014
lhumerus 27.2253 21.3311 44.621
lradius 26.5428
lwrist -21.2503
lhand -20.1248 20.2697
lfingers 7.12502
lthumb 6.21935 50.1584
rfemur -11.8331 2.43994 12.1299
rtibia 30.864
rfoot -22.471 -9.35211
rtoes 7.40791
lfemur -10.3981 -2.72124 -14.7431
ltibia 26.9642
lfoot -15.671 3.55882
ltoes -20.2896
4505
root -1.89035 17.7047 0.179623 4.02722 3.06511 0.238587
lowerback -2.74271 -0.808887 -2.29437
upperback 0.361881 -1.04577 2.32873
thorax 1.99534 -0.561469 3.63952
lowerneck -27.26 -1.76924 -9.717
upperneck 23.5642 0.289276 4.40909
head 12.2928 -0.15794 3.3455
rclavicle 1.37161e-014 -3.65764e-014
rhumerus 23.9749 -24.7085 -33.0684
rradius 27.6547
rwrist 35.2277
rhand -27.981 -6.74578
rfingers 7.12502
rthumb -1.36753 -36.7211
lclavicle 1.37161e-014 -3.65764e-014
lhumerus 26.332 21.5247 45.3104
lradius 26.5163
lwrist -21.4606
lhand -20.1704 20.5518
lfingers 7.12502
lthumb 6.17531 50.4418
rfemur -11.9263 2.36843 12.1135
rtibia 30.8325
rfoot -22.4469 -9.35927
rtoes 7.67957
lfemur -10.5571 -2.74601 -14.7381
ltibia 26.9776
lfoot -15.6334 3.49433
ltoes -20.0161
4506
root -1.89249 17.7062 0.176994 4.16355 3.15539 0.196402
lowerback -2.75897 -0.829744 -2.2569
upperback 0.377583 -1.07492 2.3355
thorax 2.02241 -0.576313 3.62369
lowerneck -27.6349 -1.79825 -9.56279
upperneck 23.6406 0.262639 4.28356
head 12.3964 -0.173748 3.27241
rclavicle 1.03865e-014 -2.46493e-014
rhumerus 23.1112 -25.0582 -33.4144
rradius 27.6241
rwrist 36.1555
rhand -27.8059 -6.56476
rfingers 7.12502
rthumb -1.19843 -36.5411
lclavicle 1.03865e-014 -2.46493e-014
lhumerus 25.3776 21.774 45.87
lradius 26.4344
lwrist -21.5405
lhand -20.3893 20.7093
lfingers 7.12502
lthumb 5.96397 50.6053
rfemur -12.0544 2.32446 12.1677
rtibia 30.8067
rfoot -22.4857 -9.36937
rtoes 7.86125
lfemur -10.7386 -2.78651 -14.6672
ltibia 26.9717
lfoot -15.6421 3.46706
ltoes -20.1916
4507
root -1.89481 17.7111 0.172333 4.2981 3.2817 0.156249
lowerback -2.67133 -0.845302 -2.20745
upperback 0.32327 -1.0975 2.30896
thorax 1.91756 -0.584474 3.56857
lowerneck -27.7661 -1.81453 -9.40969
upperneck 23.6276 0.211653 4.20675
head 12.4201 -0.191957 3.20908
rclavicle 2.25621e-014 -3.10104e-014
rhumerus 21.9785 -25.1144 -33.5069
rradius 27.6251
rwrist 36.4756
rhand -27.9163 -6.57316
rfingers 7.12502
rthumb -1.30505 -36.5489
lclavicle 2.25621e-014 -3.10104e-014
lhumerus 24.2936 21.7862 46.1882
lradius 26.409
lwrist -21.4903
lhand -20.2119 20.6767
lfingers 7.12502
lthumb 6.13522 50.5678
rfemur -12.1646 2.41033 12.2136
rtibia 30.8025
rfoot -22.7015 -9.35324
rtoes 9.20113
lfemur -10.8986 -2.86955 -14.6047
ltibia 26.9382
lfoot -15.619 3.50733
ltoes -20.6253
4508
root -1.89681 17.7137 0.169771 4.43225 3.36804 0.206734
lowerback -2.58617 -0.846984 -2.24187
upperback 0.268003 -1.09832 2.25516
thorax 1.81251 -0.582528 3.53368
lowerneck -27.7411 -1.81104 -9.43178
upperneck 23.5887 0.177971 4.35754
head 12.4015 -0.186384 3.26421
rclavicle -1.11816e-014 7.95139e-016
rhumerus 20.7058 -24.8776 -33.3965
rradius 27.7052
rwrist 36.0104
rhand -28.2349 -6.79233
rfingers 7.12502
rthumb -1.6128 -36.766
lclavicle -1.11816e-014 7.95139e-016
lhumerus 23.2207 21.9389 46.5458
lradius 26.3424
lwrist -21.7155
lhand -19.8147 20.6056
lfingers 7.12502
lthumb 6.51868 50.4853
rfemur -12.2769 2.50965 12.1402
rtibia 30.8163
rfoot -22.9279 -9.25859
rtoes 10.9007
lfemur -11.0448 -2.99106 -14.6451
ltibia 26.8883
lfoot -15.6039 3.58313
ltoes -20.7974
4509
root -1.89752 17.7138 0.171634 4.53288 3.40985 0.283006
lowerback -2.60242 -0.839014 -2.28138
upperback 0.306342 -1.08513 2.18179
thorax 1.8593 -0.577185 3.48017
lowerneck -27.5631 -1.78623 -9.58535
upperneck 23.2799 0.154556 4.70991
head 12.2457 -0.153247 3.41201
rclavicle 1.1778e-014 -6.36111e-015
rhumerus 19.5725 -24.9596 -33.4313
rradius 27.6921
rwrist 35.8444
rhand -28.5008 -6.72381
rfingers 7.12502
rthumb -1.86958 -36.6954
lclavicle 1.1778e-014 -6.36111e-015
lhumerus 22.1516 22.1322 46.791
lradius 26.2854
lwrist -21.8764
lhand -19.5455 20.3567
lfingers 7.12502
lthumb 6.77856 50.2282
rfemur -12.3937 2.33325 12.0637
rtibia 30.8462
rfoot -22.7983 -9.32904
rtoes 9.76018
lfemur -11.126 -3.04233 -14.7203
ltibia 26.8179
lfoot -15.5743 3.56556
ltoes -20.7071
4510
root -1.89869 17.7134 0.173223 4.63757 3.46384 0.374745
lowerback -2.66653 -0.842149 -2.35099
upperback 0.391194 -1.08544 2.11933
thorax 1.9827 -0.580842 3.45349
lowerneck -27.4878 -1.7944 -9.70893
upperneck 22.966 0.11588 4.95682
head 12.1102 -0.138812 3.51134
rclavicle -1.71949e-014 2.78299e-014
rhumerus 18.4802 -25.1899 -33.4835
rradius 27.74
rwrist 35.8597
rhand -28.5645 -6.6901
rfingers 7.12502
rthumb -1.93113 -36.6611
lclavicle -1.71949e-014 2.78299e-014
lhumerus 21.0432 22.2772 46.8646
lradius 26.2563
lwrist -21.7594
lhand -19.5233 20.2095
lfingers 7.12502
lthumb 6.79996 50.0803
rfemur -12.5354 2.09318 11.9806
rtibia 30.8869
rfoot -22.583 -9.47234
rtoes 7.96141
lfemur -11.2052 -3.02899 -14.8093
ltibia 26.7323
lfoot -15.5354 3.5018
ltoes -20.753
4511
root -1.9022 17.7161 0.173621 4.77214 3.54159 0.490669
lowerback -2.75146 -0.85712 -2.4724
upperback 0.467458 -1.09927 2.06672
thorax 2.11132 -0.591993 3.46543
lowerneck -27.6234 -1.82172 -9.77872
upperneck 22.8536 0.0900653 5.06895
head 12.0931 -0.137045 3.55985
rclavicle 1.89839e-014 -1.47101e-014
rhumerus 17.3531 -25.3335 -33.4094
rradius 27.7954
rwrist 35.7382
rhand -28.559 -6.64225
rfingers 7.12502
rthumb -1.92585 -36.6133
lclavicle 1.89839e-014 -1.47101e-014
lhumerus 19.9516 22.3919 46.8658
lradius 26.1754
lwrist -21.6898
lhand -19.6585 20.1811
lfingers 7.12502
lthumb 6.66948 50.0561
rfemur -12.6594 2.10738 11.8475
rtibia 30.9166
rfoot -22.7267 -9.34974
rtoes 9.20062
lfemur -11.3233 -3.0528 -14.9149
ltibia 26.6632
lfoot -15.5159 3.45894
ltoes -20.6589
